<svg xmlns="http://www.w3.org/2000/svg" viewBox="0 0 175.62 197.19"><defs><style>.a{fill:#9d2011;stroke:#9d2011;stroke-miterlimit:10;stroke-width:2px;}</style></defs><path class="a" d="M172.43,169.56a1.42,1.42,0,0,0-1,1.12,9.11,9.11,0,0,1-.45,1.37c-.25.62-.5,1.19-.75,1.68s-.54,1.15-.78,1.77A28.41,28.41,0,0,1,158.87,187,40.74,40.74,0,0,1,143.71,193a37.23,37.23,0,0,1-16.28-.57,21.9,21.9,0,0,1-13-8.91A33.57,33.57,0,0,1,109,168.14a59.65,59.65,0,0,1-.58-12.76c.26-4.44.71-8.77,1.36-12.88a136.29,136.29,0,0,1,3.48-17.78c1.55-5.85,3.25-11.73,5-17.46,1.66-5.12,3.59-10.3,5.72-15.4s4.27-10.21,6.41-15.27,4.2-10.23,6.14-15.39,3.65-10.49,5.09-15.85c.51-2.21,1.07-4.64,1.65-7.31a41.87,41.87,0,0,0,1-8,25.83,25.83,0,0,0-1-7.83,14.78,14.78,0,0,0-4.19-6.76c-2.5-2.5-5.23-3.66-8.12-3.45a18.59,18.59,0,0,0-8.13,2.64,34.45,34.45,0,0,0-7.18,5.68c-2.14,2.21-4,4.25-5.57,6.06A141.52,141.52,0,0,0,99.32,40.63c-3.24,4.92-6.39,10-9.36,15.21-3.12,5.33-6.14,10.74-9,16.07l-1.6,3c.31-.81.63-1.63.93-2.44,2.21-5.71,4.21-11.52,6-17.27a147.56,147.56,0,0,0,4.21-17.73c.26-2,.59-4.34,1-7.19a33.06,33.06,0,0,0,.1-8.48A15.9,15.9,0,0,0,89,14.65c-1.45-2.1-3.83-3.17-7.08-3.17a14.78,14.78,0,0,0-8.22,2.57,41.44,41.44,0,0,0-6.53,5.24,63,63,0,0,0-6.11,6.6c-1.82,2.27-3.63,4.57-5.47,6.94-3.51,4.93-6.79,10-9.76,15.13-2,3.43-4,6.92-5.91,10.43.18-.63.38-1.27.58-1.92,1.68-5.83,3.16-11.8,4.39-17.76a82.34,82.34,0,0,0,1.67-18.29c-.14-2.36-.4-4.9-.79-7.56a12.46,12.46,0,0,0-3.51-7.15A14.91,14.91,0,0,0,35.56,1.5a12.77,12.77,0,0,0-8,.29,21.66,21.66,0,0,0-7.48,4A46.26,46.26,0,0,0,14,12a48.11,48.11,0,0,0-4.94,7.32C7.62,21.9,6.36,24.4,5.31,26.77A77.62,77.62,0,0,0,2.56,35a45.08,45.08,0,0,0-1.49,8.81,32.92,32.92,0,0,0,.6,8.78A24.49,24.49,0,0,0,5.1,60.9a1.85,1.85,0,0,0,1.68.52,1.27,1.27,0,0,0,.94-.59,1.25,1.25,0,0,0,.12-1,4,4,0,0,0-1-2.33,9.43,9.43,0,0,1-1.06-1.58,16.72,16.72,0,0,1-1.3-4.18c-.26-1.46-.45-2.91-.58-4.3a32.82,32.82,0,0,1,.57-9.3,57.07,57.07,0,0,1,2.69-9,58.53,58.53,0,0,1,4-8.35,46,46,0,0,1,5.37-7.38,39.65,39.65,0,0,1,6.19-6,15.64,15.64,0,0,1,7.67-3.24A10,10,0,0,1,40.18,9,12.83,12.83,0,0,1,42,16.44a79.86,79.86,0,0,1-.77,8.18,121.83,121.83,0,0,1-4,17.39q-2.62,8.55-5.34,17.29c-3.62,11.1-7.51,22.15-11.56,32.83S12.18,113.79,8,124.81l-1.17,3.11a.92.92,0,0,0-.05.28v.39c0,.94.12,1.43.43,1.74s1.18.25,1.88-.36a.79.79,0,0,0,.44-.23,1.46,1.46,0,0,0,.37-.6,23.53,23.53,0,0,0,2.19-3.47c.85-1.57,1.67-3.16,2.45-4.8s1.47-3.09,2.05-4.39,1-2.17,1.06-2.5c1.56-3.11,3-6.27,4.39-9.37s2.75-6.22,4.19-9.34c1.68-3.9,3.29-7.84,4.77-11.7S34,75.82,35.39,71.94L42,59.75c3-5.26,6.09-10.52,9.31-15.61A158.26,158.26,0,0,1,61.73,29.53c1.81-2.2,3.73-4.38,5.7-6.47a36.77,36.77,0,0,1,6.36-5.42A26,26,0,0,1,80,14.82a5.52,5.52,0,0,1,5.68,1,4.62,4.62,0,0,1,1.74,2.75,15.07,15.07,0,0,1,.37,4.15,35.76,35.76,0,0,1-.48,4.47c-.25,1.47-.51,2.73-.76,3.75-.66,2.85-1.37,5.65-2.13,8.32s-1.68,5.48-2.71,8.33L75.51,66.07q-3.3,8.76-6.61,17.41t-6.61,17.4L55.67,118l-3.11,8.56a.81.81,0,0,0-.05.27,3.26,3.26,0,0,1-.32.94c-.27.6-.5,1.21-.71,1.82a9.5,9.5,0,0,0-.42,1.91c-.14,1.19.32,1.69.73,1.89a1.58,1.58,0,0,0,2.25-.73c2.21-4.17,4.28-8.47,6.15-12.8s3.84-8.55,5.92-12.71c5.15-10.94,10.61-22,16.23-32.74a314,314,0,0,1,18.71-31.33q2.53-3.69,5.15-7.38a83.65,83.65,0,0,1,5.51-6.95,75.44,75.44,0,0,1,5.77-6.26,34.14,34.14,0,0,1,6.63-5,15.11,15.11,0,0,1,7.3-2,7.77,7.77,0,0,1,6.09,3.21A11.35,11.35,0,0,1,140,23.73a18.18,18.18,0,0,1,.18,5.82,55.58,55.58,0,0,1-3.93,17.16c-2.25,5.58-4.63,11.17-7.08,16.59-2.31,5-4.72,10.06-7.19,15a160,160,0,0,0-6.64,15.53,214.18,214.18,0,0,0-9.66,33.78,123.5,123.5,0,0,0-1.86,35,54.87,54.87,0,0,0,2.46,13.43,31.28,31.28,0,0,0,6.91,11.8,26.56,26.56,0,0,0,15.14,7.71,50.49,50.49,0,0,0,7.64.58,49.4,49.4,0,0,0,9.26-.87,46.16,46.16,0,0,0,15.34-6,32.5,32.5,0,0,0,11.49-12.1c.25-.51.79-1.5,1.63-3,.39-.69,1.56-2.78.35-4A1.81,1.81,0,0,0,172.43,169.56Z"/></svg>